Coordinates
version=1
nRows=13
nColumns=34
inDegrees=yes

Units are S.I. units (second, meters, Newtons, ...)
If the header above contains a line with 'inDegrees', this indicates whether rotational values are in degrees (yes) or radians (no).

endheader
time	pelvis_tilt	pelvis_list	pelvis_rotation	pelvis_tx	pelvis_ty	pelvis_tz	hip_flexion_r	hip_adduction_r	hip_rotation_r	knee_angle_r	ankle_angle_r	subtalar_angle_r	mtp_angle_r	hip_flexion_l	hip_adduction_l	hip_rotation_l	knee_angle_l	ankle_angle_l	subtalar_angle_l	mtp_angle_l	lumbar_extension	lumbar_bending	lumbar_rotation	arm_flex_r	arm_add_r	arm_rot_r	elbow_flex_r	pro_sup_r	arm_flex_l	arm_add_l	arm_rot_l	elbow_flex_l	pro_sup_l
      3.91666670	    -29.78540756	      2.48312214	     -2.04720584	      0.41319839	      0.51518876	     -0.18390659	    109.43596394	     -8.01566155	      8.17058898	    106.83830186	     29.17374002	     -6.59105031	      0.00000000	    109.83084673	     -8.47906890	      4.49544740	    106.80584963	     26.74630082	     -3.37943077	      0.00000000	    -37.88055456	      0.76665300	     -1.87542092	    218.48953566	    -26.94243543	     78.14571072	     14.70007191	     47.15238007	    222.16157863	    -27.12381307	     82.79267673	     19.19774107	     51.06173302
      3.93333330	    -29.53495247	      2.34250034	     -1.98771998	      0.41558634	      0.51597320	     -0.18515618	    109.35472596	     -8.18199368	      8.20141379	    106.94990852	     28.72266450	     -6.94013661	      0.00000000	    109.90386736	     -8.24594904	      4.54643421	    106.96445045	     25.62076720	     -4.81333129	      0.00000000	    -37.85312377	      1.05961732	     -1.89931587	    217.63076942	    -26.93828008	     78.05198973	     15.05214211	     47.64126525	    221.24619054	    -27.09260810	     82.73409292	     19.13580936	     51.49172837
      3.95000000	    -29.46279047	      2.32785335	     -1.98171654	      0.41162249	      0.51478089	     -0.18525391	    109.38948204	     -8.20938243	      8.26308481	    106.76189952	     28.35271572	     -6.89804768	      0.00000000	    110.11732495	     -8.05971486	      4.56076186	    107.04187629	     25.20832191	     -4.98377648	      0.00000000	    -37.93098551	      1.09692666	     -1.98355493	    217.16744633	    -27.03378151	     77.98841626	     15.07308305	     47.88280327	    220.72182183	    -26.98782152	     82.67619458	     19.09152125	     51.70675269
      3.96666670	    -29.48038877	      2.34620694	     -2.07964471	      0.41393402	      0.51628545	     -0.18653877	    109.49581677	     -8.21699423	      8.26770024	    106.70542329	     28.36563514	     -6.90697192	      0.00000000	    110.12586209	     -8.00917805	      4.53520141	    107.03042080	     25.21177396	     -4.99162496	      0.00000000	    -38.02229341	      1.13908578	     -1.95523707	    217.12882647	    -27.03808548	     77.98947193	     15.07334640	     47.88737718	    220.69756591	    -26.96867662	     82.67658249	     19.09733176	     51.71092629
      3.98333330	    -29.50533981	      2.37312881	     -2.13816374	      0.41342161	      0.51459872	     -0.18567538	    109.62346112	     -8.21280283	      8.25476739	    106.68817386	     28.37576740	     -6.90815829	      0.00000000	    110.13660041	     -7.96500812	      4.58197538	    106.98821908	     25.23146845	     -5.00221210	      0.00000000	    -38.11830208	      1.13643936	     -1.95125550	    217.07855798	    -27.01768076	     77.99073756	     15.07916853	     47.89340028	    220.66330018	    -26.95209847	     82.67690934	     19.10115469	     51.71615292
      4.00000000	    -29.52155209	      2.39510054	     -2.19370204	      0.41336862	      0.51646266	     -0.18516413	    109.76732775	     -8.16385641	      8.23736704	    106.70209526	     28.37825861	     -6.90811053	      0.00000000	    110.16582989	     -7.90328230	      4.65162047	    106.93328828	     25.24198490	     -5.00340156	      0.00000000	    -38.20515629	      1.11748938	     -1.96090469	    217.02954244	    -26.99930262	     77.99155759	     15.08438151	     47.89996989	    220.62271706	    -26.94811159	     82.67705180	     19.09980757	     51.72179545
      4.01666670	    -30.07502381	      2.44267449	     -2.45220096	      0.41307212	      0.51537817	     -0.18515798	    110.38866576	     -7.79954032	      8.18038162	    106.64972630	     28.18505759	     -7.01504869	      0.00000000	    110.78193328	     -8.04978087	      4.88161653	    106.99575131	     25.42941863	     -4.81304795	      0.00000000	    -37.32218346	      0.96665998	     -1.80180206	    216.37306383	    -26.96470096	     77.88204261	     15.03984207	     48.11832427	    220.00477005	    -26.94755187	     82.54860386	     18.90492277	     51.90947756
      4.03333330	    -30.14607479	      2.45137645	     -2.47412174	      0.41638589	      0.51573041	     -0.18477583	    110.41162148	     -7.80270070	      8.16208750	    106.75355786	     28.17230028	     -7.02317344	      0.00000000	    110.63049063	     -8.08132600	      4.94118869	    106.89480364	     25.41988394	     -4.79994110	      0.00000000	    -37.25513779	      0.98536375	     -1.80399813	    216.39597163	    -26.96635266	     77.87486007	     15.04237601	     48.12415719	    220.00786937	    -26.94430856	     82.54238495	     18.90233147	     51.91474205
      4.05000000	    -30.17418968	      2.45286507	     -2.48697866	      0.41444279	      0.51481364	     -0.18456322	    110.44007059	     -7.77194903	      8.13665680	    106.78552907	     28.15725615	     -7.02396915	      0.00000000	    110.60352570	     -8.08446437	      4.94224748	    106.85700869	     25.41636869	     -4.79027148	      0.00000000	    -37.26559907	      0.99708353	     -1.81781896	    216.40711896	    -26.96450618	     77.87059984	     15.04725033	     48.12972328	    219.98437739	    -26.94381769	     82.54042933	     18.90033265	     51.91960397
      4.06666670	    -30.17761747	      2.45111273	     -2.53355501	      0.41494450	      0.51518490	     -0.18529349	    110.50815665	     -7.77413179	      8.14216269	    106.86438636	     28.12817001	     -7.03127250	      0.00000000	    110.56047375	     -8.10176766	      4.97506349	    106.81474129	     25.42221672	     -4.78765808	      0.00000000	    -37.26769182	      1.02160590	     -1.81375604	    216.41307356	    -26.98042225	     77.86665842	     15.04687046	     48.13536812	    219.96750652	    -26.94594283	     82.53749672	     18.89674236	     51.92444067
      4.08333330	    -30.16316385	      2.45031595	     -2.55620168	      0.41520638	      0.51475561	     -0.18544527	    110.55095974	     -7.76832887	      8.18932151	    106.93195883	     28.04730715	     -7.03006648	      0.00000000	    110.63454263	     -8.08459315	      4.99147137	    106.94248747	     25.42490678	     -4.78580585	      0.00000000	    -37.31872625	      1.03332166	     -1.80889386	    216.40097274	    -26.99927011	     77.86177943	     15.04915819	     48.14824793	    219.92053677	    -26.94923978	     82.53272138	     18.88897965	     51.93486961
      4.10000000	    -30.21529456	      2.44963536	     -2.67804371	      0.41372292	      0.51292522	     -0.18595385	    110.78014886	     -7.69035397	      8.16502756	    107.09132317	     27.18444754	     -7.70231911	      0.00000000	    110.94868695	     -8.05811295	      5.12433948	    107.24585119	     25.43731208	     -4.81991064	      0.00000000	    -36.83372781	      0.89256370	     -1.60546898	    215.82222654	    -27.14774826	     77.68042235	     15.19407574	     48.53756401	    219.00360378	    -26.67265677	     82.22369945	     18.59166464	     52.20805214
      4.11666670	    -30.21372668	      2.46794277	     -2.67962925	      0.41669837	      0.51334074	     -0.18449714	    110.80253395	     -7.69467163	      8.15835171	    107.34997485	     27.19405652	     -7.72497661	      0.00000000	    110.94068033	     -8.04995664	      5.24519722	    107.39777609	     25.45751719	     -4.83257210	      0.00000000	    -36.79779825	      0.91418564	     -1.64033737	    215.88592754	    -27.16268998	     77.65709499	     15.20994252	     48.55893222	    218.99253482	    -26.65966438	     82.19962165	     18.58687943	     52.22380093
